<svg width="25" height="24" viewBox="0 0 25 24" fill="none" xmlns="http://www.w3.org/2000/svg">
<mask id="mask0_11_17226" style="mask-type:alpha" maskUnits="userSpaceOnUse" x="0" y="0" width="25" height="24">
<rect x="0.0585938" width="24" height="24" fill="#D9D9D9"/>
</mask>
<g mask="url(#mask0_11_17226)">
<path d="M5.90859 17.1C6.75859 16.45 7.70859 15.9375 8.75859 15.5625C9.80859 15.1875 10.9086 15 12.0586 15C13.2086 15 14.3086 15.1875 15.3586 15.5625C16.4086 15.9375 17.3586 16.45 18.2086 17.1C18.7919 16.4167 19.2461 15.6417 19.5711 14.775C19.8961 13.9083 20.0586 12.9833 20.0586 12C20.0586 9.78333 19.2794 7.89583 17.7211 6.3375C16.1628 4.77917 14.2753 4 12.0586 4C9.84193 4 7.95443 4.77917 6.39609 6.3375C4.83776 7.89583 4.05859 9.78333 4.05859 12C4.05859 12.9833 4.22109 13.9083 4.54609 14.775C4.87109 15.6417 5.32526 16.4167 5.90859 17.1ZM12.0586 13C11.0753 13 10.2461 12.6625 9.57109 11.9875C8.89609 11.3125 8.55859 10.4833 8.55859 9.5C8.55859 8.51667 8.89609 7.6875 9.57109 7.0125C10.2461 6.3375 11.0753 6 12.0586 6C13.0419 6 13.8711 6.3375 14.5461 7.0125C15.2211 7.6875 15.5586 8.51667 15.5586 9.5C15.5586 10.4833 15.2211 11.3125 14.5461 11.9875C13.8711 12.6625 13.0419 13 12.0586 13ZM12.0586 22C10.6753 22 9.37526 21.7375 8.15859 21.2125C6.94193 20.6875 5.88359 19.975 4.98359 19.075C4.08359 18.175 3.37109 17.1167 2.84609 15.9C2.32109 14.6833 2.05859 13.3833 2.05859 12C2.05859 10.6167 2.32109 9.31667 2.84609 8.1C3.37109 6.88333 4.08359 5.825 4.98359 4.925C5.88359 4.025 6.94193 3.3125 8.15859 2.7875C9.37526 2.2625 10.6753 2 12.0586 2C13.4419 2 14.7419 2.2625 15.9586 2.7875C17.1753 3.3125 18.2336 4.025 19.1336 4.925C20.0336 5.825 20.7461 6.88333 21.2711 8.1C21.7961 9.31667 22.0586 10.6167 22.0586 12C22.0586 13.3833 21.7961 14.6833 21.2711 15.9C20.7461 17.1167 20.0336 18.175 19.1336 19.075C18.2336 19.975 17.1753 20.6875 15.9586 21.2125C14.7419 21.7375 13.4419 22 12.0586 22ZM12.0586 20C12.9419 20 13.7753 19.8708 14.5586 19.6125C15.3419 19.3542 16.0586 18.9833 16.7086 18.5C16.0586 18.0167 15.3419 17.6458 14.5586 17.3875C13.7753 17.1292 12.9419 17 12.0586 17C11.1753 17 10.3419 17.1292 9.55859 17.3875C8.77526 17.6458 8.05859 18.0167 7.40859 18.5C8.05859 18.9833 8.77526 19.3542 9.55859 19.6125C10.3419 19.8708 11.1753 20 12.0586 20ZM12.0586 11C12.4919 11 12.8503 10.8583 13.1336 10.575C13.4169 10.2917 13.5586 9.93333 13.5586 9.5C13.5586 9.06667 13.4169 8.70833 13.1336 8.425C12.8503 8.14167 12.4919 8 12.0586 8C11.6253 8 11.2669 8.14167 10.9836 8.425C10.7003 8.70833 10.5586 9.06667 10.5586 9.5C10.5586 9.93333 10.7003 10.2917 10.9836 10.575C11.2669 10.8583 11.6253 11 12.0586 11Z" fill="#EC6625"/>
</g>
</svg>
