<svg width="14" height="13" viewBox="0 0 14 13" fill="none" xmlns="http://www.w3.org/2000/svg">
<path d="M11.1258 3.4L2.22578 12.3C2.04245 12.4833 1.80911 12.575 1.52578 12.575C1.24245 12.575 1.00911 12.4833 0.825781 12.3C0.642448 12.1167 0.550781 11.8833 0.550781 11.6C0.550781 11.3167 0.642448 11.0833 0.825781 10.9L9.72578 2H2.12578C1.84245 2 1.60495 1.90417 1.41328 1.7125C1.22161 1.52083 1.12578 1.28333 1.12578 1C1.12578 0.716667 1.22161 0.479167 1.41328 0.2875C1.60495 0.0958333 1.84245 0 2.12578 0H12.1258C12.4091 0 12.6466 0.0958333 12.8383 0.2875C13.0299 0.479167 13.1258 0.716667 13.1258 1V11C13.1258 11.2833 13.0299 11.5208 12.8383 11.7125C12.6466 11.9042 12.4091 12 12.1258 12C11.8424 12 11.6049 11.9042 11.4133 11.7125C11.2216 11.5208 11.1258 11.2833 11.1258 11V3.4Z" fill="#BDBDBD"/>
</svg>
