<svg width="25" height="24" viewBox="0 0 25 24" fill="none" xmlns="http://www.w3.org/2000/svg">
<mask id="mask0_11_18366" style="mask-type:alpha" maskUnits="userSpaceOnUse" x="0" y="0" width="25" height="24">
<rect x="0.201172" width="24" height="24" fill="#D9D9D9"/>
</mask>
<g mask="url(#mask0_11_18366)">
<path d="M19.6414 20.5C17.7569 20.5 15.8637 20.0618 13.9617 19.1855C12.0598 18.3092 10.3124 17.073 8.71942 15.477C7.12659 13.8808 5.89201 12.1333 5.01567 10.2345C4.13934 8.33583 3.70117 6.44425 3.70117 4.55975C3.70117 4.25692 3.80117 4.00458 4.00117 3.80275C4.20117 3.60092 4.45117 3.5 4.75117 3.5H8.01267C8.26517 3.5 8.48792 3.58242 8.68092 3.74725C8.87392 3.91192 8.99667 4.11542 9.04917 4.35775L9.62242 7.3C9.66209 7.573 9.65376 7.80758 9.59742 8.00375C9.54092 8.19992 9.43959 8.36467 9.29342 8.498L6.98392 10.7462C7.35559 11.4269 7.78025 12.0708 8.25792 12.678C8.73542 13.285 9.25242 13.8648 9.80892 14.4173C10.3576 14.9661 10.9409 15.4757 11.5589 15.9462C12.1769 16.4167 12.8443 16.8546 13.5609 17.2598L15.8049 14.9963C15.9614 14.8334 16.1509 14.7193 16.3734 14.6538C16.5958 14.5884 16.8268 14.5724 17.0667 14.6058L19.8434 15.1713C20.0959 15.2379 20.302 15.3667 20.4617 15.5577C20.6213 15.7487 20.7012 15.9654 20.7012 16.2078V19.45C20.7012 19.75 20.6003 20 20.3984 20.2C20.1966 20.4 19.9443 20.5 19.6414 20.5ZM6.27417 9.327L8.05892 7.61925C8.09092 7.59358 8.11176 7.55833 8.12142 7.5135C8.13109 7.46867 8.12951 7.427 8.11667 7.3885L7.68192 5.15375C7.66909 5.10258 7.64667 5.06417 7.61467 5.0385C7.58267 5.01283 7.54101 5 7.48967 5H5.35117C5.31267 5 5.28059 5.01283 5.25492 5.0385C5.22942 5.06417 5.21667 5.09625 5.21667 5.13475C5.26784 5.81808 5.37967 6.51225 5.55217 7.21725C5.7245 7.92242 5.96517 8.62567 6.27417 9.327ZM14.9742 17.9693C15.637 18.2783 16.3283 18.5145 17.0482 18.678C17.7682 18.8413 18.4409 18.9384 19.0664 18.9693C19.1049 18.9693 19.137 18.9564 19.1627 18.9307C19.1883 18.9051 19.2012 18.873 19.2012 18.8345V16.7308C19.2012 16.6794 19.1883 16.6377 19.1627 16.6058C19.137 16.5738 19.0986 16.5513 19.0474 16.5385L16.9474 16.1115C16.9089 16.0987 16.8753 16.0971 16.8464 16.1067C16.8176 16.1164 16.7871 16.1372 16.7549 16.1692L14.9742 17.9693Z" fill="#E3530F"/>
</g>
</svg>
