<svg width="11" height="10" viewBox="0 0 11 10" fill="none" xmlns="http://www.w3.org/2000/svg">
<path d="M4.50117 5.9L3.42617 4.825C3.33451 4.73333 3.21784 4.6875 3.07617 4.6875C2.93451 4.6875 2.81784 4.73333 2.72617 4.825C2.63451 4.91667 2.58867 5.03333 2.58867 5.175C2.58867 5.31667 2.63451 5.43333 2.72617 5.525L4.15117 6.95C4.25117 7.05 4.36784 7.1 4.50117 7.1C4.63451 7.1 4.75117 7.05 4.85117 6.95L7.67617 4.125C7.76784 4.03333 7.81367 3.91667 7.81367 3.775C7.81367 3.63333 7.76784 3.51667 7.67617 3.425C7.58451 3.33333 7.46784 3.2875 7.32617 3.2875C7.1845 3.2875 7.06784 3.33333 6.97617 3.425L4.50117 5.9ZM5.20117 10C4.50951 10 3.85951 9.86875 3.25117 9.60625C2.64284 9.34375 2.11367 8.9875 1.66367 8.5375C1.21367 8.0875 0.857422 7.55833 0.594922 6.95C0.332422 6.34167 0.201172 5.69167 0.201172 5C0.201172 4.30833 0.332422 3.65833 0.594922 3.05C0.857422 2.44167 1.21367 1.9125 1.66367 1.4625C2.11367 1.0125 2.64284 0.65625 3.25117 0.39375C3.85951 0.13125 4.50951 0 5.20117 0C5.89284 0 6.54284 0.13125 7.15117 0.39375C7.75951 0.65625 8.28867 1.0125 8.73867 1.4625C9.18867 1.9125 9.54492 2.44167 9.80742 3.05C10.0699 3.65833 10.2012 4.30833 10.2012 5C10.2012 5.69167 10.0699 6.34167 9.80742 6.95C9.54492 7.55833 9.18867 8.0875 8.73867 8.5375C8.28867 8.9875 7.75951 9.34375 7.15117 9.60625C6.54284 9.86875 5.89284 10 5.20117 10Z" fill="#01A252"/>
</svg>
