<svg width="25" height="24" viewBox="0 0 25 24" fill="none" xmlns="http://www.w3.org/2000/svg">
<mask id="mask0_11_18390" style="mask-type:alpha" maskUnits="userSpaceOnUse" x="0" y="0" width="25" height="24">
<rect x="0.201172" width="24" height="24" fill="#D9D9D9"/>
</mask>
<g mask="url(#mask0_11_18390)">
<path d="M10.7819 14.1463L8.45892 11.823C8.32042 11.6847 8.14634 11.6138 7.93667 11.6105C7.72717 11.6073 7.54992 11.6782 7.40492 11.823C7.26009 11.968 7.18767 12.1437 7.18767 12.35C7.18767 12.5563 7.26009 12.732 7.40492 12.877L10.1492 15.6212C10.33 15.8019 10.5409 15.8923 10.7819 15.8923C11.0229 15.8923 11.2338 15.8019 11.4147 15.6212L16.9782 10.0578C17.1165 9.91925 17.1873 9.74517 17.1907 9.5355C17.1938 9.326 17.123 9.14875 16.9782 9.00375C16.8332 8.85892 16.6575 8.7865 16.4512 8.7865C16.2448 8.7865 16.0692 8.85892 15.9242 9.00375L10.7819 14.1463ZM12.2029 21.5C10.8889 21.5 9.65384 21.2507 8.49767 20.752C7.34151 20.2533 6.33584 19.5766 5.48067 18.7218C4.6255 17.8669 3.94842 16.8617 3.44942 15.706C2.95059 14.5503 2.70117 13.3156 2.70117 12.0017C2.70117 10.6877 2.95051 9.45267 3.44917 8.2965C3.94784 7.14033 4.62459 6.13467 5.47942 5.2795C6.33426 4.42433 7.33951 3.74725 8.49517 3.24825C9.65084 2.74942 10.8856 2.5 12.1994 2.5C13.5134 2.5 14.7485 2.74933 15.9047 3.248C17.0608 3.74667 18.0665 4.42342 18.9217 5.27825C19.7768 6.13308 20.4539 7.13833 20.9529 8.294C21.4518 9.44967 21.7012 10.6844 21.7012 11.9983C21.7012 13.3123 21.4518 14.5473 20.9532 15.7035C20.4545 16.8597 19.7778 17.8653 18.9229 18.7205C18.0681 19.5757 17.0628 20.2528 15.9072 20.7518C14.7515 21.2506 13.5168 21.5 12.2029 21.5ZM12.2012 20C14.4345 20 16.3262 19.225 17.8762 17.675C19.4262 16.125 20.2012 14.2333 20.2012 12C20.2012 9.76667 19.4262 7.875 17.8762 6.325C16.3262 4.775 14.4345 4 12.2012 4C9.96784 4 8.07617 4.775 6.52617 6.325C4.97617 7.875 4.20117 9.76667 4.20117 12C4.20117 14.2333 4.97617 16.125 6.52617 17.675C8.07617 19.225 9.96784 20 12.2012 20Z" fill="#E3530F"/>
</g>
</svg>
