<svg width="33" height="32" viewBox="0 0 33 32" fill="none" xmlns="http://www.w3.org/2000/svg">
<rect x="0.0585938" width="32" height="32" rx="16" fill="#F5F5F5"/>
<path d="M15.6336 17.375L12.7336 20.275C12.5503 20.4584 12.3169 20.55 12.0336 20.55C11.7503 20.55 11.5169 20.4584 11.3336 20.275C11.1503 20.0917 11.0586 19.8584 11.0586 19.575C11.0586 19.2917 11.1503 19.0584 11.3336 18.875L14.2336 15.975L11.3336 13.1C11.1503 12.9167 11.0586 12.6834 11.0586 12.4C11.0586 12.1167 11.1503 11.8834 11.3336 11.7C11.5169 11.5167 11.7503 11.425 12.0336 11.425C12.3169 11.425 12.5503 11.5167 12.7336 11.7L15.6336 14.6L18.5086 11.7C18.6919 11.5167 18.9253 11.425 19.2086 11.425C19.4919 11.425 19.7253 11.5167 19.9086 11.7C20.1086 11.9 20.2086 12.1375 20.2086 12.4125C20.2086 12.6875 20.1086 12.9167 19.9086 13.1L17.0086 15.975L19.9086 18.875C20.0919 19.0584 20.1836 19.2917 20.1836 19.575C20.1836 19.8584 20.0919 20.0917 19.9086 20.275C19.7086 20.475 19.4711 20.575 19.1961 20.575C18.9211 20.575 18.6919 20.475 18.5086 20.275L15.6336 17.375Z" fill="#1C1B1F"/>
</svg>
