<svg width="13" height="12" viewBox="0 0 13 12" fill="none" xmlns="http://www.w3.org/2000/svg">
<mask id="mask0_11_19433" style="mask-type:alpha" maskUnits="userSpaceOnUse" x="0" y="0" width="13" height="12">
<rect x="0.201172" width="12" height="12" fill="#D9D9D9"/>
</mask>
<g mask="url(#mask0_11_19433)">
<path d="M6.20117 8.5C6.34284 8.5 6.46159 8.45208 6.55742 8.35625C6.65326 8.26042 6.70117 8.14167 6.70117 8C6.70117 7.85833 6.65326 7.73958 6.55742 7.64375C6.46159 7.54792 6.34284 7.5 6.20117 7.5C6.0595 7.5 5.94076 7.54792 5.84492 7.64375C5.74909 7.73958 5.70117 7.85833 5.70117 8C5.70117 8.14167 5.74909 8.26042 5.84492 8.35625C5.94076 8.45208 6.0595 8.5 6.20117 8.5ZM6.20117 6.5C6.34284 6.5 6.46159 6.45208 6.55742 6.35625C6.65326 6.26042 6.70117 6.14167 6.70117 6V4C6.70117 3.85833 6.65326 3.73958 6.55742 3.64375C6.46159 3.54792 6.34284 3.5 6.20117 3.5C6.0595 3.5 5.94076 3.54792 5.84492 3.64375C5.74909 3.73958 5.70117 3.85833 5.70117 4V6C5.70117 6.14167 5.74909 6.26042 5.84492 6.35625C5.94076 6.45208 6.0595 6.5 6.20117 6.5ZM6.20117 11C5.50951 11 4.85951 10.8687 4.25117 10.6062C3.64284 10.3438 3.11367 9.9875 2.66367 9.5375C2.21367 9.0875 1.85742 8.55833 1.59492 7.95C1.33242 7.34167 1.20117 6.69167 1.20117 6C1.20117 5.30833 1.33242 4.65833 1.59492 4.05C1.85742 3.44167 2.21367 2.9125 2.66367 2.4625C3.11367 2.0125 3.64284 1.65625 4.25117 1.39375C4.85951 1.13125 5.50951 1 6.20117 1C6.89284 1 7.54284 1.13125 8.15117 1.39375C8.75951 1.65625 9.28867 2.0125 9.73867 2.4625C10.1887 2.9125 10.5449 3.44167 10.8074 4.05C11.0699 4.65833 11.2012 5.30833 11.2012 6C11.2012 6.69167 11.0699 7.34167 10.8074 7.95C10.5449 8.55833 10.1887 9.0875 9.73867 9.5375C9.28867 9.9875 8.75951 10.3438 8.15117 10.6062C7.54284 10.8687 6.89284 11 6.20117 11Z" fill="#E00903"/>
</g>
</svg>
