<svg width="21" height="20" viewBox="0 0 21 20" fill="none" xmlns="http://www.w3.org/2000/svg">
<mask id="mask0_11_18201" style="mask-type:alpha" maskUnits="userSpaceOnUse" x="0" y="0" width="21" height="20">
<rect x="0.798828" width="20" height="20" fill="#D9D9D9"/>
</mask>
<g mask="url(#mask0_11_18201)">
<path d="M9.96572 16.6663C9.72961 16.6663 9.5317 16.5865 9.37197 16.4268C9.21225 16.267 9.13239 16.0691 9.13239 15.833V10.833L4.29906 4.66634C4.09072 4.38856 4.05947 4.0969 4.20531 3.79134C4.35114 3.48579 4.60461 3.33301 4.96572 3.33301H16.6324C16.9935 3.33301 17.247 3.48579 17.3928 3.79134C17.5386 4.0969 17.5074 4.38856 17.2991 4.66634L12.4657 10.833V15.833C12.4657 16.0691 12.3859 16.267 12.2261 16.4268C12.0664 16.5865 11.8685 16.6663 11.6324 16.6663H9.96572ZM10.7991 10.2497L14.9241 4.99967H6.67406L10.7991 10.2497Z" fill="#EC6625"/>
</g>
</svg>
