<svg width="17" height="16" viewBox="0 0 17 16" fill="none" xmlns="http://www.w3.org/2000/svg">
<mask id="mask0_40000022_12116" style="mask-type:alpha" maskUnits="userSpaceOnUse" x="0" y="0" width="17" height="16">
<rect x="0.625" width="16" height="16" fill="#BA8001"/>
</mask>
<g mask="url(#mask0_40000022_12116)">
<path d="M5.95768 13.3335H11.291V11.3335C11.291 10.6002 11.0299 9.97238 10.5077 9.45016C9.98546 8.92794 9.35768 8.66683 8.62435 8.66683C7.89102 8.66683 7.26324 8.92794 6.74102 9.45016C6.21879 9.97238 5.95768 10.6002 5.95768 11.3335V13.3335ZM8.62435 7.3335C9.35768 7.3335 9.98546 7.07238 10.5077 6.55016C11.0299 6.02794 11.291 5.40016 11.291 4.66683V2.66683H5.95768V4.66683C5.95768 5.40016 6.21879 6.02794 6.74102 6.55016C7.26324 7.07238 7.89102 7.3335 8.62435 7.3335ZM3.95768 14.6668C3.76879 14.6668 3.61046 14.6029 3.48268 14.4752C3.3549 14.3474 3.29102 14.1891 3.29102 14.0002C3.29102 13.8113 3.3549 13.6529 3.48268 13.5252C3.61046 13.3974 3.76879 13.3335 3.95768 13.3335H4.62435V11.3335C4.62435 10.6557 4.78268 10.0196 5.09935 9.42516C5.41602 8.83072 5.85768 8.35572 6.42435 8.00016C5.85768 7.64461 5.41602 7.16961 5.09935 6.57516C4.78268 5.98072 4.62435 5.34461 4.62435 4.66683V2.66683H3.95768C3.76879 2.66683 3.61046 2.60294 3.48268 2.47516C3.3549 2.34738 3.29102 2.18905 3.29102 2.00016C3.29102 1.81127 3.3549 1.65294 3.48268 1.52516C3.61046 1.39738 3.76879 1.3335 3.95768 1.3335H13.291C13.4799 1.3335 13.6382 1.39738 13.766 1.52516C13.8938 1.65294 13.9577 1.81127 13.9577 2.00016C13.9577 2.18905 13.8938 2.34738 13.766 2.47516C13.6382 2.60294 13.4799 2.66683 13.291 2.66683H12.6243V4.66683C12.6243 5.34461 12.466 5.98072 12.1493 6.57516C11.8327 7.16961 11.391 7.64461 10.8243 8.00016C11.391 8.35572 11.8327 8.83072 12.1493 9.42516C12.466 10.0196 12.6243 10.6557 12.6243 11.3335V13.3335H13.291C13.4799 13.3335 13.6382 13.3974 13.766 13.5252C13.8938 13.6529 13.9577 13.8113 13.9577 14.0002C13.9577 14.1891 13.8938 14.3474 13.766 14.4752C13.6382 14.6029 13.4799 14.6668 13.291 14.6668H3.95768Z" fill="#BA8001"/>
</g>
</svg>
