<svg width="16" height="16" viewBox="0 0 16 16" fill="none" xmlns="http://www.w3.org/2000/svg">
<mask id="mask0_40000338_5845" style="mask-type:alpha" maskUnits="userSpaceOnUse" x="0" y="0" width="16" height="16">
<rect width="16" height="16" fill="#BA8001"/>
</mask>
<g mask="url(#mask0_40000338_5845)">
<path d="M11.9997 8.66675C12.1886 8.66675 12.3469 8.60286 12.4747 8.47508C12.6025 8.3473 12.6663 8.18897 12.6663 8.00008C12.6663 7.81119 12.6025 7.65286 12.4747 7.52508C12.3469 7.3973 12.1886 7.33342 11.9997 7.33342H9.99967C9.81079 7.33342 9.65245 7.3973 9.52467 7.52508C9.3969 7.65286 9.33301 7.81119 9.33301 8.00008C9.33301 8.18897 9.3969 8.3473 9.52467 8.47508C9.65245 8.60286 9.81079 8.66675 9.99967 8.66675H11.9997ZM11.9997 6.66675C12.1886 6.66675 12.3469 6.60286 12.4747 6.47508C12.6025 6.3473 12.6663 6.18897 12.6663 6.00008C12.6663 5.81119 12.6025 5.65286 12.4747 5.52508C12.3469 5.3973 12.1886 5.33341 11.9997 5.33341H9.99967C9.81079 5.33341 9.65245 5.3973 9.52467 5.52508C9.3969 5.65286 9.33301 5.81119 9.33301 6.00008C9.33301 6.18897 9.3969 6.3473 9.52467 6.47508C9.65245 6.60286 9.81079 6.66675 9.99967 6.66675H11.9997ZM5.99967 8.66675C5.59967 8.66675 5.23856 8.70286 4.91634 8.77508C4.59412 8.8473 4.31079 8.96119 4.06634 9.11675C3.83301 9.26119 3.65523 9.42508 3.53301 9.60842C3.41079 9.79175 3.34967 9.98897 3.34967 10.2001C3.34967 10.3334 3.39967 10.4445 3.49967 10.5334C3.59967 10.6223 3.7219 10.6667 3.86634 10.6667H8.13301C8.27745 10.6667 8.39967 10.6195 8.49967 10.5251C8.59967 10.4306 8.64967 10.3112 8.64967 10.1667C8.64967 9.97786 8.58856 9.79453 8.46634 9.61675C8.34412 9.43897 8.16634 9.2723 7.93301 9.11675C7.68856 8.96119 7.40523 8.8473 7.08301 8.77508C6.76079 8.70286 6.39967 8.66675 5.99967 8.66675ZM5.99967 8.00008C6.36634 8.00008 6.68023 7.86953 6.94134 7.60841C7.20245 7.3473 7.33301 7.03341 7.33301 6.66675C7.33301 6.30008 7.20245 5.98619 6.94134 5.72508C6.68023 5.46397 6.36634 5.33341 5.99967 5.33341C5.63301 5.33341 5.31912 5.46397 5.05801 5.72508C4.7969 5.98619 4.66634 6.30008 4.66634 6.66675C4.66634 7.03341 4.7969 7.3473 5.05801 7.60841C5.31912 7.86953 5.63301 8.00008 5.99967 8.00008ZM2.66634 13.3334C2.29967 13.3334 1.98579 13.2029 1.72467 12.9417C1.46356 12.6806 1.33301 12.3667 1.33301 12.0001V4.00008C1.33301 3.63341 1.46356 3.31953 1.72467 3.05841C1.98579 2.7973 2.29967 2.66675 2.66634 2.66675H13.333C13.6997 2.66675 14.0136 2.7973 14.2747 3.05841C14.5358 3.31953 14.6663 3.63341 14.6663 4.00008V12.0001C14.6663 12.3667 14.5358 12.6806 14.2747 12.9417C14.0136 13.2029 13.6997 13.3334 13.333 13.3334H2.66634Z" fill="#F5503F"/>
</g>
</svg>
