<svg width="25" height="24" viewBox="0 0 25 24" fill="none" xmlns="http://www.w3.org/2000/svg">
<mask id="mask0_11_17242" style="mask-type:alpha" maskUnits="userSpaceOnUse" x="0" y="0" width="25" height="24">
<rect x="0.0585938" width="24" height="24" fill="#D9D9D9"/>
</mask>
<g mask="url(#mask0_11_17242)">
<path d="M5.05859 21C4.50859 21 4.03776 20.8042 3.64609 20.4125C3.25443 20.0208 3.05859 19.55 3.05859 19V5C3.05859 4.45 3.25443 3.97917 3.64609 3.5875C4.03776 3.19583 4.50859 3 5.05859 3H11.0586C11.3419 3 11.5794 3.09583 11.7711 3.2875C11.9628 3.47917 12.0586 3.71667 12.0586 4C12.0586 4.28333 11.9628 4.52083 11.7711 4.7125C11.5794 4.90417 11.3419 5 11.0586 5H5.05859V19H11.0586C11.3419 19 11.5794 19.0958 11.7711 19.2875C11.9628 19.4792 12.0586 19.7167 12.0586 20C12.0586 20.2833 11.9628 20.5208 11.7711 20.7125C11.5794 20.9042 11.3419 21 11.0586 21H5.05859ZM17.2336 13H10.0586C9.77526 13 9.53776 12.9042 9.34609 12.7125C9.15443 12.5208 9.05859 12.2833 9.05859 12C9.05859 11.7167 9.15443 11.4792 9.34609 11.2875C9.53776 11.0958 9.77526 11 10.0586 11H17.2336L15.3586 9.125C15.1753 8.94167 15.0836 8.71667 15.0836 8.45C15.0836 8.18333 15.1753 7.95 15.3586 7.75C15.5419 7.55 15.7753 7.44583 16.0586 7.4375C16.3419 7.42917 16.5836 7.525 16.7836 7.725L20.3586 11.3C20.5586 11.5 20.6586 11.7333 20.6586 12C20.6586 12.2667 20.5586 12.5 20.3586 12.7L16.7836 16.275C16.5836 16.475 16.3461 16.5708 16.0711 16.5625C15.7961 16.5542 15.5586 16.45 15.3586 16.25C15.1753 16.05 15.0878 15.8125 15.0961 15.5375C15.1044 15.2625 15.2003 15.0333 15.3836 14.85L17.2336 13Z" fill="#EC6625"/>
</g>
</svg>
