<?xml version="1.0" encoding="utf-8"?>
<!-- Generator: Adobe Illustrator 27.5.0, SVG Export Plug-In . SVG Version: 6.00 Build 0)  -->
<svg version="1.1" id="Layer_1" xmlns="http://www.w3.org/2000/svg" xmlns:xlink="http://www.w3.org/1999/xlink" x="0px" y="0px"
	 viewBox="0 0 2706.059 2000" style="enable-background:new 0 0 2706.059 2000;" xml:space="preserve">
<rect x="0" style="fill:#FFFFFF;" width="2706.059" height="2000"/>
<g>
	<path style="fill:#D7EBFA;" d="M2347.793,970.045c269.396,313.982,48.898,752.007,22.964,783.317
		c-46.136,0-2019.23,3.889-2019.23,3.889c-0.237-0.462-0.474-0.923-0.711-1.386c-3.753-7.395-7.27-14.652-10.561-21.754
		c-29.418-63.455-40.959-115.549-40.959-160.712c0-106.938,64.695-175.026,109.938-263.063
		c43.351-84.429,56.021-166.904,28.763-277.085c-25.359-102.543-27.771-196.43-12.353-280.759
		c21.122-115.729,77.028-219.073,162.64-302.839c258.69-253.144,738.404-277.017,937.787,13.954
		c20.539,29.96,47.182,81.5,106.432,154.828C1818.9,849.197,2103.383,685.185,2347.793,970.045z"/>
	<path style="fill:#E6F3FF;" d="M1632.502,618.435L425.644,752.492c2.637-14.449,5.793-28.605,9.456-42.491L1526.07,463.607
		c5.061,7.382,9.94,14.968,14.629,22.756C1570.736,536.26,1601.529,580.104,1632.502,618.435z"/>
	<path style="fill:#C0D8FA;" d="M2465.656,1206.091c-288.723-3.876-624.93-9.972-875.422-19.228
		c-388.836-14.38-895.418,17.044-1147.521,35.782c-7.275,29.805-18.56,58.632-33.48,87.69
		c-45.242,88.037-109.938,156.125-109.938,263.063c0,45.163,11.542,97.257,40.959,160.712c3.25,7.014,6.723,14.182,10.424,21.482
		c566.96-0.707,2002.409-2.689,2021.898-4.651C2397.525,1715.549,2522.395,1461.164,2465.656,1206.091z"/>
	<path style="fill:#A9CBFC;" d="M2478.826,1400.307c-207.137,0.036-634.196-6.477-889.854-56.474
		c-278.527-54.472-921.196-40.958-1179.74-33.497c-45.242,88.037-109.937,156.125-109.937,263.063
		c0,45.163,11.542,97.257,40.959,160.712c585.944,7.329,1753.372,14.269,2033.27,15.873
		C2389.953,1728.45,2465.24,1580.835,2478.826,1400.307z"/>
	<path style="fill:#95BBF5;" d="M2245.662,1438.746c-482.555,196.863-1263.941,164.027-1263.941,164.027l174.74,148.132h1216.336
		c15.582-18.812,100.657-183.553,107.672-380.176C2403.503,1385.239,2323.617,1406.943,2245.662,1438.746z"/>
	<path style="fill:#6AA2E5;" d="M2334.86,1755.865l-1986.063-4.013c-35.751-71.582-49.503-129.143-49.503-178.453
		c0-31.559,5.636-59.725,14.743-86.03c50.708-13.796,103.467-21.573,156.88-20.176c305.172,8.014,685.589,167.824,1084.241,193.895
		C1953.801,1687.146,2334.86,1755.865,2334.86,1755.865z"/>
	<path style="fill:#233862;" d="M2017.286,1752.511c0,0-33.069-55.981-66.938-55.31c-33.868,0.673-70.472,54.823-70.472,54.823
		L2017.286,1752.511z"/>
	<path style="fill:#2B478B;" d="M1972.275,1752.511c0,0-39.817-67.403-80.596-66.594s-84.852,66.009-84.852,66.009
		L1972.275,1752.511z"/>
	<path style="fill:#233862;" d="M577.386,1752.511c0,0-54.843-92.839-111.008-91.724c-56.167,1.114-116.87,90.918-116.87,90.918
		L577.386,1752.511z"/>
	<path style="fill:#2B478B;" d="M502.74,1752.511c0,0-66.032-111.781-133.658-110.438
		c-67.626,1.342-140.716,109.468-140.716,109.468L502.74,1752.511z"/>
	<path style="fill:#C0D8FA;" d="M1021.566,1195.758c0,0-51.316-79.909-100.713-77.083c-49.396,2.825-99.875,83.855-99.875,83.855
		L1021.566,1195.758z"/>
	<path style="fill:#C0D8FA;" d="M1117.73,1192.17c0,0-34.946-54.419-68.587-52.495c-33.64,1.925-68.016,57.107-68.016,57.107
		L1117.73,1192.17z"/>
	<path style="fill:#E6F3FF;" d="M1185.553,384.834L535.523,508.522c16.287-20.817,33.937-40.451,52.76-58.868L1185.553,384.834z"/>
	<path style="fill:#F8FBFF;" d="M1250.673,431.138c0-17.932,14.537-32.47,32.47-32.47c17.932,0,32.469,14.538,32.469,32.47
		c0,17.933-14.537,32.47-32.469,32.47C1265.21,463.607,1250.673,449.07,1250.673,431.138z"/>
	<g>
		<g>
			<polygon style="fill:#C0D8FA;" points="2003.555,1134.014 2002.713,1164.082 1884.039,1160.76 1884.536,1143.06 			"/>
			<path style="fill:#C0D8FA;" d="M1813.274,1169.842c0.391-13.977,12.038-24.99,26.015-24.598
				c13.976,0.392,24.989,12.038,24.598,26.015c-0.392,13.976-12.039,24.989-26.015,24.598
				C1823.895,1195.465,1812.881,1183.818,1813.274,1169.842z"/>
			<path style="fill:#C0D8FA;" d="M1826.211,1170.203c0.191-6.83,5.884-12.213,12.715-12.021
				c6.831,0.191,12.213,5.884,12.021,12.714c-0.19,6.831-5.883,12.214-12.715,12.023
				C1831.402,1182.728,1826.02,1177.035,1826.211,1170.203z"/>
			<path style="fill:#C0D8FA;" d="M1931.418,1173.149c0.393-13.977,12.039-24.989,26.016-24.598
				c13.977,0.392,24.988,12.038,24.598,26.015c-0.392,13.977-12.039,24.989-26.016,24.598
				C1942.041,1198.772,1931.027,1187.126,1931.418,1173.149z"/>
			<path style="fill:#C0D8FA;" d="M1944.356,1173.512c0.19-6.83,5.884-12.214,12.715-12.022c6.83,0.191,12.214,5.884,12.022,12.715
				s-5.885,12.214-12.715,12.022C1949.548,1186.035,1944.164,1180.343,1944.356,1173.512z"/>
			<path style="fill:#C0D8FA;" d="M1808.459,1085.654c1.707,0.047,45.671,1.278,45.671,1.278l30.406,56.127l127.443-5.289
				l1.212-43.29l-142.562-3.991l-13.451-18.41l-47.021-1.316L1808.459,1085.654z"/>
			<path style="fill:#C0D8FA;" d="M1884.536,1143.06l-0.306,21.085l-16.879,0.309c-2.738-12.993-14.088-22.909-27.948-23.297
				s-25.75,8.876-29.21,21.697l-17.113-0.479l0.895-31.987l8.638,0.241l12.877-39.976l41.59,1.166L1884.536,1143.06z"/>
			<polygon style="fill:#C0D8FA;" points="1819.014,1095.564 1807.913,1130.67 1836.629,1131.474 1837.619,1096.085 			"/>
			
				<rect x="1877.596" y="1147.015" transform="matrix(0.9996 0.028 -0.028 0.9996 33.3198 -52.8435)" style="fill:#C0D8FA;" width="49.494" height="31.11"/>
			
				<rect x="1806.864" y="1129.89" transform="matrix(0.9996 0.028 -0.028 0.9996 32.7933 -51.1374)" style="fill:#C0D8FA;" width="71.189" height="31.11"/>
		</g>
		<path style="fill:#C0D8FA;" d="M1879.598,1090.74c0,0,19.342-25.388,27.978-25.146c8.636,0.242,24.091,21.321,33.694,17.749
			c9.603-3.572,33.129-6.274,43.026,10.328L1879.598,1090.74z"/>
	</g>
	<g>
		<path style="fill:#C0D8FA;" d="M2358.254,1136.263c0.046-4.395-8.468-50.565-8.468-50.565l-48.541-0.514l-33.762,91.593
			l90.332,0.955L2358.254,1136.263z"/>
		<polygon style="fill:#C0D8FA;" points="2227.016,1172.812 2207.085,1172.601 2207.462,1136.977 2292.219,1117.881 
			2291.593,1177.031 		"/>
		<path style="fill:#C0D8FA;" d="M2319.749,1169.613c0.223-21.069,17.482-37.969,38.551-37.745
			c21.069,0.223,37.969,17.482,37.745,38.552c-0.223,21.068-17.483,37.968-38.552,37.744
			C2336.425,1207.941,2319.525,1190.682,2319.749,1169.613z"/>
		<path style="fill:#C0D8FA;" d="M2339.252,1169.819c0.108-10.298,8.544-18.557,18.842-18.448
			c10.298,0.109,18.557,8.545,18.448,18.842c-0.109,10.298-8.545,18.558-18.842,18.448
			C2347.402,1188.553,2339.143,1180.116,2339.252,1169.819z"/>
		<path style="fill:#C0D8FA;" d="M2220.306,1180.707c0.146-13.809,11.459-24.885,25.268-24.738
			c13.809,0.146,24.885,11.458,24.738,25.268c-0.146,13.809-11.458,24.885-25.268,24.738
			C2231.235,1205.83,2220.159,1194.516,2220.306,1180.707z"/>
		<path style="fill:#C0D8FA;" d="M2233.089,1180.842c0.07-6.749,5.6-12.162,12.35-12.091c6.748,0.071,12.162,5.601,12.091,12.35
			s-5.601,12.163-12.35,12.091C2238.431,1193.121,2233.017,1187.592,2233.089,1180.842z"/>
		
			<rect x="2334.591" y="1118.603" transform="matrix(0.9999 0.0106 -0.0106 0.9999 12.0043 -24.8638)" style="fill:#C0D8FA;" width="51.598" height="11.332"/>
		
			<rect x="2335.094" y="1061.371" transform="matrix(0.9999 0.0106 -0.0106 0.9999 11.5803 -24.7978)" style="fill:#C0D8FA;" width="5.144" height="30.381"/>
		<polygon style="fill:#C0D8FA;" points="2190.489,1205.398 2134.696,1204.808 2157.95,1149.255 2191.079,1149.605 		"/>
		
			<rect x="2177.497" y="1152.046" transform="matrix(0.7977 -0.603 0.603 0.7977 -252.1932 1559.075)" style="fill:#C0D8FA;" width="40.823" height="6.837"/>
	</g>
	<g>
		<path style="fill:#A9CBFC;" d="M1129.583,1256.241c0.152-3.155,8.211-35.925,8.211-35.925l34.852,1.682l20.356,67.146
			l-64.856-3.13L1129.583,1256.241z"/>
		<polygon style="fill:#A9CBFC;" points="1222.205,1288.01 1236.515,1288.701 1237.75,1263.123 1177.741,1245.841 
			1175.691,1288.309 		"/>
		<path style="fill:#A9CBFC;" d="M1155.802,1281.798c0.73-15.128-10.941-27.982-26.067-28.712
			c-15.127-0.73-27.982,10.94-28.711,26.067c-0.731,15.128,10.94,27.981,26.067,28.712
			C1142.218,1308.595,1155.072,1296.925,1155.802,1281.798z"/>
		<path style="fill:#A9CBFC;" d="M1141.799,1281.122c0.357-7.394-5.347-13.676-12.741-14.033
			c-7.393-0.356-13.676,5.347-14.032,12.74c-0.357,7.394,5.347,13.677,12.74,14.033
			C1135.16,1294.219,1141.442,1288.515,1141.799,1281.122z"/>
		<path style="fill:#A9CBFC;" d="M1226.687,1293.958c0.478-9.914-7.171-18.339-17.085-18.817
			c-9.915-0.479-18.34,7.171-18.818,17.085c-0.479,9.915,7.171,18.339,17.085,18.818
			C1217.783,1311.522,1226.208,1303.873,1226.687,1293.958z"/>
		<path style="fill:#A9CBFC;" d="M1217.509,1293.516c0.233-4.847-3.505-8.964-8.351-9.198c-4.846-0.233-8.963,3.505-9.197,8.351
			c-0.234,4.846,3.505,8.964,8.35,9.198C1213.157,1302.1,1217.275,1298.361,1217.509,1293.516z"/>
		
			<rect x="1110.013" y="1243.472" transform="matrix(-0.9988 -0.0482 0.0482 -0.9988 2195.6514 2548.0505)" style="fill:#A9CBFC;" width="37.087" height="8.145"/>
		
			<rect x="1145.028" y="1203.355" transform="matrix(-0.9988 -0.0483 0.0483 -0.9988 2233.7141 2482.5679)" style="fill:#A9CBFC;" width="3.697" height="21.836"/>
		<polygon style="fill:#A9CBFC;" points="1247.038,1312.934 1287.096,1314.867 1272.757,1274.024 1248.971,1272.876 		"/>
		
			<rect x="1229.152" y="1274.334" transform="matrix(-0.7609 -0.6489 0.6489 -0.7609 1361.7869 3055.3804)" style="fill:#A9CBFC;" width="29.343" height="4.915"/>
	</g>
	<g>
		<path style="fill:#95BBF5;" d="M2192.863,1391.314c-1.241-4.409-23.299-48.108-23.299-48.108l-48.717,13.721l-6.923,101.541
			l90.661-25.533L2192.863,1391.314z"/>
		<polygon style="fill:#95BBF5;" points="2072.274,1466.367 2052.271,1472 2042.202,1436.246 2121.404,1392.288 2138.123,1451.652 
					"/>
		<path style="fill:#95BBF5;" d="M2164.117,1435.975c-5.955-21.146,6.359-43.115,27.505-49.069
			c21.146-5.956,43.114,6.358,49.069,27.503c5.954,21.146-6.359,43.114-27.504,49.07
			C2192.042,1469.434,2170.073,1457.119,2164.117,1435.975z"/>
		<path style="fill:#95BBF5;" d="M2183.691,1430.461c-2.91-10.334,3.108-21.071,13.443-23.982
			c10.334-2.91,21.071,3.108,23.982,13.442c2.911,10.336-3.108,21.073-13.442,23.983
			C2197.34,1446.815,2186.603,1440.797,2183.691,1430.461z"/>
		<path style="fill:#95BBF5;" d="M2067.876,1476.234c-3.903-13.859,4.168-28.258,18.026-32.161s28.258,4.168,32.161,18.026
			c3.903,13.859-4.168,28.258-18.026,32.161C2086.178,1498.164,2071.778,1490.093,2067.876,1476.234z"/>
		<path style="fill:#95BBF5;" d="M2080.705,1472.621c-1.907-6.773,2.037-13.811,8.811-15.719c6.773-1.907,13.812,2.037,15.719,8.811
			c1.908,6.773-2.037,13.812-8.811,15.72C2089.65,1483.34,2082.613,1479.396,2080.705,1472.621z"/>
		
			<rect x="2164.586" y="1372.781" transform="matrix(0.9626 -0.2711 0.2711 0.9626 -291.6731 645.6705)" style="fill:#95BBF5;" width="53.797" height="11.816"/>
		
			<rect x="2152.078" y="1321.782" transform="matrix(0.9625 -0.2712 0.2712 0.9625 -281.9975 634.4617)" style="fill:#95BBF5;" width="5.363" height="31.675"/>
		<polygon style="fill:#95BBF5;" points="2045.284,1509.682 1989.288,1525.451 1996.264,1463.05 2029.515,1453.687 		"/>
		
			<rect x="2016.784" y="1453.982" transform="matrix(0.596 -0.803 0.803 0.596 -346.9644 2225.5198)" style="fill:#95BBF5;" width="42.563" height="7.128"/>
	</g>
	<g id="P297LW_4_">
		<path style="fill:#FFA412;" d="M938.886,989.126c-11.9,36.426-76.754,99.388-85.718,105.665c0,0-15.089-25.148-12.071-39.232
			c2.465-11.497,27.714-52.48,36.356-72.619c0.452-1.046,0.855-2.042,1.207-2.968c1.187-3.088,1.811-5.482,1.67-6.9
			c-0.433-4.376-14.184-15.019-30.169-27.644c-20.773-16.417-45.318-36.164-49.302-49.815
			c-7.042-24.143-31.436-119.738-31.436-119.738s60.609,13.107,77.71,28.196c17.101,15.09,90.537,140.834,93.554,173.024
			C941.019,980.606,940.354,984.67,938.886,989.126z"/>
		<path style="fill:#FFB27D;" d="M938.886,989.126c-11.9,36.426-76.754,99.388-85.718,105.665c0,0-15.089-25.148-12.071-39.232
			c2.595-12.091,30.4-56.815,37.563-75.587C889.433,978.101,914.732,975.808,938.886,989.126z"/>
		<path style="fill:#FFB27D;" d="M769.442,767.475l-0.04,7.424c0,0,2.022,23.217-26.567,26.608
			c-28.589,3.399-50.247-9.054-49.473-26.97c2.575-13.872,5.402-23.398,5.593-34.877c0.07-4.265-0.222-8.792-1.016-13.902
			l55.398-1.106l16.316,2.666L769.442,767.475z"/>
		<path style="fill:#EA9C68;" d="M769.654,727.316l-0.211,40.158c-5.885,2.735-12.524,4.405-19.968,4.405
			c-25.461,0-41.918-18.67-50.519-32.221c0.07-4.265-0.222-8.792-1.016-13.902l55.398-1.106L769.654,727.316z"/>
		<path style="fill:#233862;" d="M720.613,1754.118c0,0-2.689-20.946-8.916-33.4c-6.227-12.454-45.855-4.528-45.855-4.528
			s-7.925,6.793-9.623,38.494L720.613,1754.118z"/>
		<path style="fill:#233862;" d="M855.625,1753.835c-9.311-5.684-4.013-48.082-4.013-48.082s43.388-34.71,49.354-8.136
			c5.966,26.576,41.219,38.508,61.286,41.762c13.853,2.246,18.142,9.918,19.47,14.456H855.625z"/>
		<path style="fill:#2B478B;" d="M765.754,1438.773c1.766,9.73,2.887,17.713,3.184,23.437
			c4.034,78.674,66.226,258.559,77.35,262.754c17.213,6.495,44.317-7.312,58.498-11.829c5.876-1.877,9.842-7.804,8.534-13.815
			c-30.799-141.588-42.118-345.47-46.236-466.177c-2.081-60.8-12.517-102.799-12.517-102.799s-151.685-40.471-152.584,10.725
			C701.185,1186.371,752.227,1364.039,765.754,1438.773z"/>
		<path style="fill:#233862;" d="M765.754,1438.773l101.33-205.631c-2.081-60.8-12.517-102.799-12.517-102.799
			s-151.685-40.471-152.584,10.725C701.185,1186.371,752.227,1364.039,765.754,1438.773z"/>
		<path style="fill:#2B478B;" d="M799.503,1141.248l-80.187,581.168c0,0-35.213,8.491-62.602,1.698
			c0,0-23.476-309.092-21.519-383.817c1.956-74.726-16.849-199.952,4.292-213.763
			C660.627,1112.724,799.503,1141.248,799.503,1141.248z"/>
		<path style="fill:#FFA412;" d="M858.932,1142.322c0,0-40.972,23.892-100.324,23.218c-23.137-0.262-43.266-1.991-60.347-4.537
			c-47.602-7.062-71.625-20.351-71.433-25.3c0.161-4.466,0.473-19.304,1.036-25.682c7.564-87.236,3.651-155.088,13.831-206.06
			c0.121-0.613,0.242-1.228,0.373-1.831c13.469-64.803,34.584-102.033,45.066-117.304c3.833-5.573,6.106-10.291,6.227-10.291
			c0,12.092,25.883,24.615,46.878,23.247c17.685-1.156,29.163-14.606,29.163-21.89l0.02-0.019c1.449,0,83.153,46.55,82.653,103.05
			C850.068,1105.637,863.278,1142.403,858.932,1142.322z"/>
		<path style="fill:#E27F2B;" d="M698.372,1160.259c-0.04,0.251-0.07,0.503-0.11,0.744c-47.602-7.062-71.625-20.351-71.433-25.3
			c0.161-4.466,0.473-19.304,1.036-25.682c7.564-87.236,3.651-155.088,13.831-206.06
			C666.685,937.359,718.048,1024.828,698.372,1160.259z"/>
		<g>
			<path style="fill:#FFFFFF;" d="M828.765,1051.82l-6.398,21.286l-6.357,21.125l-276.134-83.062
				c-0.392,0.021-0.774-0.02-1.137-0.131c-0.382-0.11-0.734-0.291-1.066-0.523c-3.48-2.464-4.114-11.487-1.438-21.657
				c0.141-0.563,0.302-1.127,0.473-1.7c3.229-10.935,9.104-19.023,13.611-19.093c0.372-0.011,0.724,0.04,1.076,0.141
				c0.362,0.11,0.694,0.271,1.016,0.493L828.765,1051.82z"/>
			<path style="fill:#EDE2C7;" d="M822.366,1073.106l-6.357,21.125l-276.134-83.062c-0.392,0.021-0.774-0.02-1.137-0.131
				c-0.382-0.11-0.734-0.291-1.066-0.523c-3.48-2.464-4.114-11.487-1.438-21.657c11.287,8.47,65.196,45.941,157.211,64.169
				C788.556,1071.869,817.991,1073.046,822.366,1073.106z"/>
			<path style="fill:#D6C8A1;" d="M831.329,1075.587c-3.494,11.831-10.069,20.315-14.688,18.952
				c-4.618-1.364-5.529-12.061-2.035-23.891c3.494-11.83,10.07-20.314,14.688-18.951
				C833.912,1053.062,834.823,1063.757,831.329,1075.587z"/>
		</g>
		<g>
			<path style="fill:#FFFFFF;" d="M806.713,1001.841l-3.551,21.94l-3.531,21.769l-284.635-46.183c-0.392,0.07-0.774,0.08-1.147,0.02
				c-0.392-0.061-0.764-0.191-1.126-0.382c-0.03-0.021-0.07-0.04-0.111-0.07c-1.911-1.077-3.31-3.954-4.034-7.907
				c-0.664-3.691-0.754-8.31-0.121-13.299c0.071-0.583,0.151-1.156,0.251-1.75c1.771-11.267,6.529-20.049,10.995-20.713
				c0.362-0.06,0.714-0.05,1.076,0c0.382,0.061,0.724,0.182,1.077,0.353l32.552,5.281L806.713,1001.841z"/>
			<path style="fill:#F7F2E3;" d="M803.162,1023.781l-3.531,21.769l-284.635-46.183c-0.392,0.07-0.774,0.08-1.147,0.02
				c-0.392-0.061-0.764-0.191-1.126-0.382c-0.03-0.021-0.07-0.04-0.111-0.07c-0.936-0.645-2.505-3.582-4.034-7.907
				c-0.664-3.691-0.754-8.31-0.121-13.299c0.071-0.583,0.151-1.156,0.251-1.75c1.771-11.267,6.529-20.049,10.995-20.713
				c0.362-0.06,0.714-0.05,1.076,0c0.382,0.061,0.724,0.182,1.077,0.353l32.552,5.281c25.16,23.75,57.43,55.94,118.31,59.854
				C769.483,1026.98,798.816,1024.294,803.162,1023.781z"/>
			<path style="fill:#D6C8A1;" d="M812.373,1025.063c-1.914,12.186-7.323,21.458-12.08,20.711
				c-4.756-0.747-7.06-11.231-5.145-23.418c1.914-12.185,7.322-21.458,12.079-20.711
				C811.984,1002.393,814.288,1012.878,812.373,1025.063z"/>
		</g>
		<path style="fill:#FFB27D;" d="M705.967,1085.405c-66.021-10.502-109.659-38.165-127.575-51.545
			c-6.116-4.566-9.234-7.474-9.234-7.474c-33.831-71.121,27.372-195.819,38.558-216.954c12.072-22.795,85.647-34.897,85.647-34.897
			s-11.639,36.707-16.236,81.845c-4.597,45.137-53.647,133.117-51.635,140.501c0.503,1.861,6.428,5.764,15.069,10.693
			c25.622,14.586,72.336,45.205,75.344,50.728C719.927,1065.676,705.967,1085.405,705.967,1085.405z"/>
		<path style="fill:#FFA412;" d="M681.672,856.424c-4.598,45.137-58.193,133.074-56.181,140.458
			c0.503,1.861,6.428,5.764,15.069,10.693c-0.543,0.04-1.096,0.05-1.66,0.03c-38.588-1.7-56.052,19.646-60.508,26.255
			c-6.116-4.566-9.234-7.474-9.234-7.474c-33.831-71.121,27.372-195.819,38.558-216.954c12.072-22.795,85.647-34.897,85.647-34.897
			S686.27,811.287,681.672,856.424z"/>
		<path style="fill:#FFB27D;" d="M772.887,746.831c0,0-70.951,14.332-79.196-29.99c-8.246-44.321-22.956-72.321,21.995-83.346
			c44.951-11.025,56.925,4.246,63.275,18.37C785.313,665.988,791.131,741.96,772.887,746.831z"/>
		<path style="fill:#233862;" d="M695.108,729.621c0,0-13.716-29.274-25.156-42.274c-11.439-12.999-5.2-77.994,44.197-75.914
			c49.396,2.079,67.075,37.438,67.595,44.196c0.52,6.76-39.517,1.56-50.437,10.399c-10.919,8.84-0.52,23.398-12.999,28.599
			c-12.479,5.199-22.358,5.199-20.279,16.639C700.111,722.705,695.108,729.621,695.108,729.621z"/>
		<path style="fill:#FFA412;" d="M797.157,648.339c0,0-26.436,9.197-35.698,9.868c-2.758,0.2-43.759,3.019-43.759,3.019
			l-59.898,10.563c0,0-11.689-44.464,17.604-72.398l0.01-0.011c0.734-0.704,1.499-1.398,2.284-2.072
			c7.917-6.83,18.52-12.504,32.653-16.055C781.977,563.266,796.855,645.744,797.157,648.339z"/>
		<g>
			<path style="fill:#E27F2B;" d="M762.255,656.95l-11.316,1.509c-8.853-11.699-41.591-52.279-76.116-58.295
				c0.211-0.312,0.402-0.564,0.583-0.775l0.01-0.011c0.594-0.724,1.076-1.086,1.932-2.162c0.121,0.03,0.231,0.06,0.352,0.09
				C721.861,607.88,754.781,646.549,762.255,656.95z"/>
		</g>
		<path style="fill:#FFA412;" d="M717.7,661.226c0,0-7.712,8.718-9.724,17.101c-2.012,8.384-40.909,13.413-43.591,9.054
			c-2.683-4.358-6.582-15.592-6.582-15.592C672.329,662.745,693.44,660.388,717.7,661.226z"/>
		<path style="fill:#E27F2B;" d="M717.7,661.226c0,0,71.66,1.336,104.412-15.909c2.495-1.315,2.075-5.02-0.666-5.69
			c-4.918-1.202-13.306-2.54-27.126-3.047C794.32,636.58,768.668,657.873,717.7,661.226z"/>
		<path style="fill:#E27F2B;" d="M894.412,965.023c-1.327,7.524-5.382,15.441-16.96,17.916c0.452-1.046,0.855-2.042,1.207-2.968
			c1.187-3.088,1.811-5.482,1.67-6.9c-0.433-4.376-14.184-15.019-30.169-27.644c-1.317-7.163-4.537-28.418-0.01-45.288
			C855.683,879.518,895.921,956.473,894.412,965.023z"/>
		<path style="fill:#E27F2B;" d="M632.864,1002.496c0,0-49.292-4.024-65.387,24.645c0,0,1.375,9.668,10.914,6.72
			c0,0,41.697-28.498,62.168-26.285C640.56,1007.575,637.391,1002.58,632.864,1002.496z"/>
		<path style="fill:#E27F2B;" d="M877.452,982.939c0,0,25.574,1.071,57.764,15.092c0,0,7.146-7.021,4.296-11.045
			C936.662,982.963,891.341,968.498,877.452,982.939z"/>
		<path style="fill:#FFB27D;" d="M715.903,1058.303c0,0,9.666,1.035,16.57-3.452c6.904-4.488,21.404-5.869,30.379-6.904
			c8.976-1.036,2.072,5.178-4.833,7.939c-6.905,2.762-9.576,7.419-9.576,7.419s11.205,9.079,17.934,12.539
			c12.651,6.505,24.652,9.559,23.332,10.477c-21.221,14.755-83.743-0.915-83.743-0.915L715.903,1058.303z"/>
	</g>
	<g>
		<g>
			<path style="fill:#FFB27D;" d="M1340.53,1081.843c3.061-3.407,12.774,9.255,15.183,10.035c2.409,0.778-0.846-8.329,2.082-10.353
				c2.929-2.023,9.684,19.63,9.684,19.63c4.85,2.473,72.834,44.126,72.834,44.126c28.367,1.545,99.195,21.71,99.195,21.71
				s26.791,30.058,4.777,43.01c-22.014,12.952-93.404-23.168-115.387-33.405c-21.983-10.239-73.486-61.492-73.486-61.492
				C1329.766,1103.636,1334.75,1088.28,1340.53,1081.843z"/>
			<path style="fill:#2C3A64;" d="M1605.006,1032.179c0,0,16.239,34.17,36.12,56.549c45.719,51.463,44.519,141.359,24.398,171.903
				c0,0-1.493-24.137-3.526-29.189c0,0-2.172,65-36.342,71.769c-24.822,4.917-105.623-126.63-105.623-126.63
				S1491.838,1023.422,1605.006,1032.179z"/>
			<path style="fill:#ED985F;" d="M1534.081,1609.34c6.114,53.162,10.427,99.335,8.749,112.087l24.531-2.973l0.324-0.043
				c0,0,0.07-0.239,0.184-0.689c0-0.015,0-0.015,0-0.015c0.027-0.099,0.056-0.196,0.084-0.31
				c1.776-7.074,12.456-49.88,19.952-89.966c0.521-2.803,1.028-5.594,1.521-8.355c4.171-23.545,6.89-45.172,5.637-56.728
				c-3.749-34.14,30.815-174.773-1.072-187.145c-31.886-12.356-85.991,32.365-85.991,32.365S1523.654,1518.628,1534.081,1609.34z"/>
			<path style="fill:#FFB27D;" d="M1516.792,1460.915c0,0,66.52,92.346,118.568,168.589c0.423,0.619,0.846,1.226,1.254,1.83
				c29.801,43.695,54.337,79.482,58.746,91.332l21.321-4.008c0,0-15.238-67.724-30.399-113.672l-0.027-0.056
				c-0.24-0.72-0.479-1.438-0.719-2.157c-6.679-20.007-13.499-37.338-19.318-45.919c-19.29-28.392-54.643-168.843-88.6-164.827
				C1543.662,1396.044,1516.792,1460.915,1516.792,1460.915z"/>
			<path style="fill:#2C3A64;" d="M1539.35,1053.713c0.402-0.666,17.123-27.107,48.38-32.383
				c25.323-4.272,49.024,13.615,52.919,38.998c3.914,25.51-0.076,58.561-41.693,70.466L1539.35,1053.713z"/>
			<g>
				<path style="fill:#FFB27D;" d="M1547.006,1167.373l47.094,27.975l11.901-33.15c0,0-5.458-12.08-7.045-31.403
					c-0.662-8.124-0.647-17.53,0.761-27.86l-40.951,17.784c0,0,0.713,3.728,1.002,9.18c0.303,5.892,0.103,13.795-2.036,21.179
					C1555.889,1157.414,1552.621,1163.369,1547.006,1167.373z"/>
				<path style="fill:#EA9C68;" d="M1557.731,1151.076c22.59,0.83,41.225-20.282,41.225-20.282l-39.188-0.896
					C1560.07,1135.789,1559.87,1143.692,1557.731,1151.076z"/>
				<path style="fill:#FFB27D;" d="M1547.592,1137.814c0,0,44.229,14.738,62.021-20.045c19.203-37.539,2.621-66.834-12.535-69.703
					c-30.222-5.722-48.655,4.769-54.789,16.705C1536.154,1076.709,1523.174,1129.904,1547.592,1137.814z"/>
				<path style="fill:#FFFFFF;" d="M1566.705,1118.811c0,0-2.177,4.521-13.878,1.161c0,0-9.824-2.819-8.36-7.992
					C1544.467,1111.979,1554.949,1110.386,1566.705,1118.811z"/>
			</g>
			<path style="fill:#B2443B;" d="M1487.41,1208.092c-0.64-4.476-0.959-8.791-0.959-12.788c0-5.434,0.479-10.39,1.438-14.703
				c3.356-18.381,12.148-28.61,12.148-28.61c26.24,4.398,37.961,2.935,50.043,8.806c1.021-0.111,2.366-0.237,3.482-0.35
				c-0.639,7.032,1.457,13.601,13.604,15.999c16.145,3.196,30.825-7.469,38.657-14.662c12.786,2.717,20.802,4.112,30.87,8.268
				c11.029,4.636,17.582,16.144,15.984,27.972l-3.037,22.376l-17.102,69.848c-1.279,8.951-6.234,27.81-4.796,36.761
				c2.078,13.587,7.833,34.845,13.746,58.979c0,0.16,0,0.16,0,0.16c5.754,24.135,11.667,51.307,13.746,76.4
				c3.037,35.483,5.114,63.134,4.475,63.613c-12.786,12.309-107.248,37.562-160.473,19.34c-5.274-1.759-2.717-96.859,2.077-189.242
				c2.745-50.777,6.063-100.729,9.191-134.061c-0.026-0.014-0.054-0.026-0.08-0.04
				C1497.798,1215.923,1487.41,1208.092,1487.41,1208.092z"/>
			<path style="fill:#943028;" d="M1601.85,1298.398c1.6,28.449,20.939,61.854,39.64,87.588
				c-5.913-24.135-11.668-45.393-13.746-58.979c-1.438-8.949,3.517-27.81,4.796-36.761l17.102-69.848
				C1639.411,1209.051,1598.654,1242.456,1601.85,1298.398z"/>
			<path style="fill:#2C3A64;" d="M1578.58,1052.195c0,0-4.191,41.492,35.171,56.195c15.651,5.846,23.8-57.526-8.905-70.18
				c-32.705-12.654-64.957,2.374-68.813,24.494c-3.855,22.121-0.919,26.734-0.919,26.734S1547.006,1054.191,1578.58,1052.195z"/>
			<path style="fill:#2C3A64;" d="M1543.135,1716.525c0,0-5.908,10.846-17.16,13.364c-7.089,1.587-13.145,5.313-16.896,10.514
				c-3.171,4.396-0.044,10.533,5.374,10.502h57.211c4.869-0.026,8.622-4.576,8.107-9.419c-0.45-4.234-0.924-9.164-1.139-12.947
				c-0.471-8.256-9.542-15.707-9.542-15.707s-7.724,4.537-10.751,5.066C1551.751,1719.053,1543.135,1716.525,1543.135,1716.525z"/>
			<path style="fill:#FFB27D;" d="M1605.006,1208.016c0,0,0.148-39.21,24.893-32.878c24.744,6.334,46.352,77.767,54.726,100.524
				c8.372,22.758,8.771,95.418,8.771,95.418s10.71,25.801,1.199,30.205c-9.511,4.403-15.323-17.965-16.732-17.437
				c-1.408,0.528-2.201,8.014-5.24,4.095c-2.516-3.246,4.385-18.51,4.385-18.51l0,0c-3.654-12.292-22.553-79.608-22.553-79.608
				C1635.424,1268.731,1605.006,1208.016,1605.006,1208.016z"/>
			<path style="fill:#2C3A64;" d="M1690.104,1716.303c0,0-5.442,11.068-16.695,13.587c-7.087,1.587-13.143,5.313-16.895,10.514
				c-3.171,4.396-0.044,10.533,5.375,10.502h57.24c4.869-0.026,8.593-4.576,8.078-9.419c-0.451-4.234-0.925-9.164-1.14-12.947
				c-0.471-8.256-9.415-15.675-9.415-15.675s-7.851,4.505-10.878,5.034C1699.187,1719.053,1690.104,1716.303,1690.104,1716.303z"/>
			<path style="fill:#943028;" d="M1486.451,1195.306c0,3.995,0.319,8.311,0.959,12.786c0,0,10.388,7.831,23.016,14.065
				c1.438-15.185-17.103-35.803-22.537-41.557C1486.93,1184.916,1486.451,1189.87,1486.451,1195.306z"/>
			<path style="fill:#B2443B;" d="M1615.863,1240.803c0,0,31.727-0.3,55.418-27.375c0,0-24.832-56.771-50.659-42.869
				S1597.931,1226.689,1615.863,1240.803z"/>
			<path style="fill:#FFA412;" d="M1537.362,1052.135c0,0,20.444,8.747,27.749,9.79c2.174,0.311,34.515,4.807,34.515,4.807
				l46.89,11.676c0,0,11.718-34.595-9.958-58.351l-0.007-0.009c-0.543-0.599-1.111-1.191-1.696-1.768
				c-5.897-5.851-13.987-10.932-24.993-14.526C1554.088,985.546,1537.744,1050.094,1537.362,1052.135z"/>
			<g>
				<path style="fill:#E27F2B;" d="M1564.549,1060.885l8.887,1.82c7.661-8.784,35.848-39.141,63.542-42.003
					c-0.15-0.259-0.288-0.469-0.42-0.646l-0.007-0.009c-0.431-0.607-0.793-0.921-1.412-1.821c-0.098,0.017-0.187,0.035-0.284,0.053
					C1599.271,1024.222,1571.047,1053.053,1564.549,1060.885z"/>
			</g>
			<path style="fill:#FFA412;" d="M1599.626,1066.731c0,0,12.372,7.335,17.122,14.53c3.773,5.717,22.707,10.213,25.073,6.906
				c2.367-3.307,4.694-9.761,4.694-9.761C1635.502,1070.439,1618.899,1067.406,1599.626,1066.731z"/>
			<path style="fill:#E27F2B;" d="M1599.626,1066.731c0,0-56.868-2.895-81.874-18.37c-1.906-1.179-1.368-4.093,0.841-4.472
				c3.964-0.682,10.686-1.28,21.667-0.919C1540.26,1042.971,1559.416,1061.262,1599.626,1066.731z"/>
		</g>
		<g>
			<path style="fill:#FFFFFF;" d="M1433.793,1017.791l-15.693-11.148l-15.576-11.055l-144.539,203.673
				c-0.282,0.199-0.521,0.43-0.71,0.696c-0.201,0.278-0.346,0.587-0.448,0.927c-0.006,0.031-0.019,0.068-0.024,0.111
				c-0.498,1.834,0.428,4.445,2.426,7.295c1.874,2.654,4.668,5.518,8.131,8.159c0.403,0.312,0.806,0.61,1.233,0.909
				c8.027,5.756,16.338,8.159,19.462,5.808c0.257-0.187,0.465-0.41,0.654-0.664c0.195-0.272,0.328-0.557,0.437-0.878l16.53-23.293
				L1433.793,1017.791z"/>
			<path style="fill:#F7EFD9;" d="M1418.1,1006.643l-15.576-11.055l-144.539,203.673c-0.282,0.199-0.521,0.43-0.71,0.696
				c-0.201,0.278-0.346,0.587-0.448,0.927c-0.006,0.031-0.019,0.068-0.024,0.111c-0.171,0.969,0.687,3.723,2.426,7.295
				c1.874,2.654,4.668,5.518,8.131,8.159c0.403,0.312,0.806,0.61,1.233,0.909c8.027,5.756,16.338,8.159,19.462,5.808
				c0.257-0.187,0.465-0.41,0.654-0.664c0.195-0.272,0.328-0.557,0.437-0.878l16.53-23.293
				c0.642-29.959,0.401-69.437,34.996-109.374C1395.651,1025.477,1415.141,1009.014,1418.1,1006.643z"/>
			<path style="fill:#D6C8A1;" d="M1422.907,1000.182c-8.682-6.226-17.689-8.526-20.12-5.138
				c-2.431,3.389,2.637,11.183,11.319,17.41c8.682,6.227,17.689,8.526,20.12,5.139
				C1436.656,1014.203,1431.589,1006.408,1422.907,1000.182z"/>
		</g>
		<path style="fill:#FFB27D;" d="M1339.151,1082.828c-2.623,3.951-5.98,8.677-4.988,9.088c0.993,0.412,7.008-1.32,7.944-2.453
			c0.765-0.926,1.679-9.351,0.326-9.669C1341.647,1079.609,1340.668,1080.544,1339.151,1082.828z"/>
	</g>
	<path style="fill:#233862;" d="M2438.298,1752.511c0,0-57.859-97.946-117.116-96.77c-59.256,1.176-123.299,95.919-123.299,95.919
		L2438.298,1752.511z"/>
	<path style="fill:#2B478B;" d="M2252.561,1752.511c0,0-33.074-55.988-66.947-55.315c-33.872,0.672-70.48,54.83-70.48,54.83
		L2252.561,1752.511z"/>
	<path style="fill:#283250;" d="M2549.285,1755.86H156.773c-1.322,0-2.403-1.244-2.403-2.765l0,0c0-1.52,1.082-2.764,2.403-2.764
		h2392.512c1.322,0,2.403,1.244,2.403,2.764l0,0C2551.688,1754.616,2550.607,1755.86,2549.285,1755.86z"/>
</g>
</svg>
