<svg width="25" height="24" viewBox="0 0 25 24" fill="none" xmlns="http://www.w3.org/2000/svg">
<mask id="mask0_11_16976" style="mask-type:alpha" maskUnits="userSpaceOnUse" x="0" y="0" width="25" height="24">
<rect x="0.625" width="24" height="24" fill="#D9D9D9"/>
</mask>
<g mask="url(#mask0_11_16976)">
<path d="M5.625 19C5.34167 19 5.10417 18.9042 4.9125 18.7125C4.72083 18.5208 4.625 18.2833 4.625 18C4.625 17.7167 4.72083 17.4792 4.9125 17.2875C5.10417 17.0958 5.34167 17 5.625 17H6.625V10C6.625 8.61667 7.04167 7.3875 7.875 6.3125C8.70833 5.2375 9.79167 4.53333 11.125 4.2V3.5C11.125 3.08333 11.2708 2.72917 11.5625 2.4375C11.8542 2.14583 12.2083 2 12.625 2C13.0417 2 13.3958 2.14583 13.6875 2.4375C13.9792 2.72917 14.125 3.08333 14.125 3.5V4.2C15.4583 4.53333 16.5417 5.2375 17.375 6.3125C18.2083 7.3875 18.625 8.61667 18.625 10V17H19.625C19.9083 17 20.1458 17.0958 20.3375 17.2875C20.5292 17.4792 20.625 17.7167 20.625 18C20.625 18.2833 20.5292 18.5208 20.3375 18.7125C20.1458 18.9042 19.9083 19 19.625 19H5.625ZM12.625 22C12.075 22 11.6042 21.8042 11.2125 21.4125C10.8208 21.0208 10.625 20.55 10.625 20H14.625C14.625 20.55 14.4292 21.0208 14.0375 21.4125C13.6458 21.8042 13.175 22 12.625 22ZM8.625 17H16.625V10C16.625 8.9 16.2333 7.95833 15.45 7.175C14.6667 6.39167 13.725 6 12.625 6C11.525 6 10.5833 6.39167 9.8 7.175C9.01667 7.95833 8.625 8.9 8.625 10V17Z" fill="white"/>
</g>
</svg>
