<svg width="33" height="32" viewBox="0 0 33 32" fill="none" xmlns="http://www.w3.org/2000/svg">
<path d="M0.625 6C0.625 2.68629 3.31129 0 6.625 0H26.625C29.9387 0 32.625 2.68629 32.625 6V26C32.625 29.3137 29.9387 32 26.625 32H6.625C3.31129 32 0.625 29.3137 0.625 26V6Z" fill="#F6BF78"/>
<path d="M11.125 24C9.60833 24 8.3125 23.475 7.2375 22.425C6.1625 21.375 5.625 20.0917 5.625 18.575C5.625 17.275 6.01667 16.1167 6.8 15.1C7.58333 14.0833 8.60833 13.4333 9.875 13.15C10.2917 11.6167 11.125 10.375 12.375 9.425C13.625 8.475 15.0417 8 16.625 8C18.575 8 20.2292 8.67917 21.5875 10.0375C22.9458 11.3958 23.625 13.05 23.625 15C24.775 15.1333 25.7292 15.6292 26.4875 16.4875C27.2458 17.3458 27.625 18.35 27.625 19.5C27.625 20.75 27.1875 21.8125 26.3125 22.6875C25.4375 23.5625 24.375 24 23.125 24H11.125ZM16.625 20C16.9083 20 17.1458 19.9042 17.3375 19.7125C17.5292 19.5208 17.625 19.2833 17.625 19C17.625 18.7167 17.5292 18.4792 17.3375 18.2875C17.1458 18.0958 16.9083 18 16.625 18C16.3417 18 16.1042 18.0958 15.9125 18.2875C15.7208 18.4792 15.625 18.7167 15.625 19C15.625 19.2833 15.7208 19.5208 15.9125 19.7125C16.1042 19.9042 16.3417 20 16.625 20ZM16.625 16.5C16.9083 16.5 17.1458 16.4042 17.3375 16.2125C17.5292 16.0208 17.625 15.7833 17.625 15.5V13C17.625 12.7167 17.5292 12.4792 17.3375 12.2875C17.1458 12.0958 16.9083 12 16.625 12C16.3417 12 16.1042 12.0958 15.9125 12.2875C15.7208 12.4792 15.625 12.7167 15.625 13V15.5C15.625 15.7833 15.7208 16.0208 15.9125 16.2125C16.1042 16.4042 16.3417 16.5 16.625 16.5Z" fill="white"/>
</svg>
