<svg width="36" height="36" viewBox="0 0 36 36" fill="none" xmlns="http://www.w3.org/2000/svg">
<rect width="36" height="36" rx="18" fill="#EC6625"/>
<path d="M16.95 18.675L15.55 17.275C15.35 17.075 15.1167 16.975 14.85 16.975C14.5833 16.975 14.35 17.075 14.15 17.275C13.95 17.475 13.85 17.7125 13.85 17.9875C13.85 18.2625 13.95 18.5 14.15 18.7L16.25 20.825C16.45 21.025 16.6833 21.125 16.95 21.125C17.2167 21.125 17.45 21.025 17.65 20.825L21.9 16.575C22.1 16.375 22.2 16.1375 22.2 15.8625C22.2 15.5875 22.1 15.35 21.9 15.15C21.7 14.95 21.4625 14.85 21.1875 14.85C20.9125 14.85 20.675 14.95 20.475 15.15L16.95 18.675ZM18 27.875C17.8833 27.875 17.775 27.8667 17.675 27.85C17.575 27.8333 17.475 27.8083 17.375 27.775C15.125 27.025 13.3333 25.6375 12 23.6125C10.6667 21.5875 10 19.4083 10 17.075V12.35C10 11.9333 10.1208 11.5583 10.3625 11.225C10.6042 10.8917 10.9167 10.65 11.3 10.5L17.3 8.25C17.5333 8.16667 17.7667 8.125 18 8.125C18.2333 8.125 18.4667 8.16667 18.7 8.25L24.7 10.5C25.0833 10.65 25.3958 10.8917 25.6375 11.225C25.8792 11.5583 26 11.9333 26 12.35V17.075C26 19.4083 25.3333 21.5875 24 23.6125C22.6667 25.6375 20.875 27.025 18.625 27.775C18.525 27.8083 18.425 27.8333 18.325 27.85C18.225 27.8667 18.1167 27.875 18 27.875Z" fill="white"/>
</svg>
